<svg xmlns="http://www.w3.org/2000/svg" width="960" height="600" viewBox="0 0 960 600" role="img" aria-labelledby="title desc">
  <title id="title">Alzate a W prono</title>
  <desc id="desc">Illustrazione originale dell'esercizio Alzate a W prono, ottimizzata per display ad alta densita.</desc>
  <defs>
    <marker id="arrow" viewBox="0 0 10 10" refX="8" refY="5" markerWidth="7" markerHeight="7" orient="auto-start-reverse">
      <path d="M0 0 L10 5 L0 10 Z" fill="#e0a84e"/>
    </marker>
  </defs>
  <rect width="960" height="600" rx="56" fill="#e5e8fb"/>
  <circle cx="156" cy="476" r="138" fill="#fff" opacity=".36"/>
  <rect x="105" y="492" width="750" height="62" rx="31" fill="#fff" opacity=".62"/><circle cx="792" cy="124" r="96" fill="#e0a84e" opacity=".28"/>
  <g><path d="M580 434 L678 430 L814 430" fill="none" stroke="#526eb8" stroke-width="22" stroke-linecap="round" stroke-linejoin="round"/><path d="M580 434 L680 448 L812 464" fill="none" stroke="#526eb8" stroke-width="22" stroke-linecap="round" stroke-linejoin="round"/><path d="M348 430 L580 434" fill="none" stroke="#526eb8" stroke-width="34" stroke-linecap="round" stroke-linejoin="round"/><path d="M256 454 L348 430" fill="none" stroke="#526eb8" stroke-width="12" stroke-linecap="round" stroke-linejoin="round"/><path d="M348 430 L392 352 L320 298" fill="none" stroke="#526eb8" stroke-width="18" stroke-linecap="round" stroke-linejoin="round"/><path d="M348 430 L392 508 L320 562" fill="none" stroke="#526eb8" stroke-width="18" stroke-linecap="round" stroke-linejoin="round"/><circle cx="256" cy="430" r="25" fill="#f5c6aa" stroke="#526eb8" stroke-width="6"/><circle cx="320" cy="298" r="8" fill="#526eb8" opacity=".9"/><circle cx="320" cy="562" r="8" fill="#526eb8" opacity=".9"/><circle cx="814" cy="430" r="8" fill="#526eb8" opacity=".9"/><circle cx="812" cy="464" r="8" fill="#526eb8" opacity=".9"/></g>
  <rect x="34" y="30" width="386" height="58" rx="29" fill="#fff" opacity=".88"/>
  <text x="62" y="68" font-family="Inter, Arial, sans-serif" font-size="28" font-weight="850" fill="#526eb8">Alzate a W prono</text>
</svg>
