<svg xmlns="http://www.w3.org/2000/svg" width="960" height="600" viewBox="0 0 960 600" role="img" aria-labelledby="title desc">
  <title id="title">Scivolamenti scapolari al muro</title>
  <desc id="desc">Illustrazione originale dell'esercizio Scivolamenti scapolari al muro, ottimizzata per display ad alta densita.</desc>
  <defs>
    <marker id="arrow" viewBox="0 0 10 10" refX="8" refY="5" markerWidth="7" markerHeight="7" orient="auto-start-reverse">
      <path d="M0 0 L10 5 L0 10 Z" fill="#d98c77"/>
    </marker>
  </defs>
  <rect width="960" height="600" rx="56" fill="#ddeae7"/>
  <circle cx="156" cy="476" r="138" fill="#fff" opacity=".36"/>
  <rect x="710" y="86" width="58" height="430" rx="18" fill="#427772" opacity=".14"/><rect x="105" y="492" width="750" height="62" rx="31" fill="#fff" opacity=".62"/>
  <g><path d="M496 408 L444 484 L420 560" fill="none" stroke="#427772" stroke-width="22" stroke-linecap="round" stroke-linejoin="round"/><path d="M496 408 L540 484 L564 560" fill="none" stroke="#427772" stroke-width="22" stroke-linecap="round" stroke-linejoin="round"/><path d="M488 264 L496 408" fill="none" stroke="#427772" stroke-width="34" stroke-linecap="round" stroke-linejoin="round"/><path d="M472 198 L488 264" fill="none" stroke="#427772" stroke-width="12" stroke-linecap="round" stroke-linejoin="round"/><path d="M488 264 L410 220 L386 132" fill="none" stroke="#427772" stroke-width="18" stroke-linecap="round" stroke-linejoin="round"/><path d="M488 264 L566 220 L590 132" fill="none" stroke="#427772" stroke-width="18" stroke-linecap="round" stroke-linejoin="round"/><circle cx="472" cy="174" r="25" fill="#f5c6aa" stroke="#427772" stroke-width="6"/><circle cx="386" cy="132" r="8" fill="#427772" opacity=".9"/><circle cx="590" cy="132" r="8" fill="#427772" opacity=".9"/><circle cx="420" cy="560" r="8" fill="#427772" opacity=".9"/><circle cx="564" cy="560" r="8" fill="#427772" opacity=".9"/></g><path d="M370 364 L370 172" fill="none" stroke="#d98c77" stroke-width="9" stroke-linecap="round" stroke-linejoin="round" marker-end="url(#arrow)"/><path d="M606 364 L606 172" fill="none" stroke="#d98c77" stroke-width="9" stroke-linecap="round" stroke-linejoin="round" marker-end="url(#arrow)"/>
  <rect x="34" y="30" width="386" height="58" rx="29" fill="#fff" opacity=".88"/>
  <text x="62" y="68" font-family="Inter, Arial, sans-serif" font-size="28" font-weight="850" fill="#427772">Scivolamenti scapolari al muro</text>
</svg>
